<svg version="1" xmlns="http://www.w3.org/2000/svg" width="570.667" height="570.667" viewBox="0 0 428.000000 428.000000"><path d="M53.2 2.9C53.3 6 52.4 8 50.9 8c-.6 0-.7-.5-.4-1 .3-.6.1-1-.5-1-.7 0-.9.7-.6 1.6.3.9.6 2 .6 2.6 0 .6.6.8 1.4.5 1.7-.7 2.8 1.6 2 3.8-.4.8-1.3 1.5-2.1 1.5s-1.1.5-.8 1c.4.6 1.1.8 1.6.5.5-.4 1.2 0 1.5.8.3.8 1.4 1.7 2.5 2 1 .3 1.9 1 1.9 1.7s-.8.9-2.1.5c-1.5-.5-1.9-.4-1.5.4.4.6.2 1.1-.3 1.1-.6 0-1.1-.6-1.1-1.4 0-.8-.5-1.8-1.2-2.2-.7-.5-.9-.2-.6.7.3.9-.5 2.5-1.8 3.8-1.3 1.3-2.5 1.8-2.5 1.2-.3-2.6-.4-3-1.1-3.6-.4-.4-1 .6-1.4 2.1-1 4.2-1.4 4.6-3 3.3-1.6-1.3-1.8-.1-.4 2.1.8 1.3 1.1 1.3 1.9.1.5-.7 1.4-1 2.1-.6.8.5.7 1.2-.5 2.5-1 1.2-1.4 3-1.2 5.6.3 2.2.2 3 0 1.9-.8-3.3-1.9-3.7-3.1-1.1-.9 2-.8 2.8.3 4 1.5 1.5 2 3.6.8 3.6-.3 0-1.9-1.4-3.4-3.1-2.3-2.6-2.6-3.5-1.8-5.6 1.2-3.1 1.1-4.3-.1-4.3-.5 0-1 .5-1 1.1 0 1.9-2.8 3.9-4.6 3.2-1.4-.5-1.6-.2-1 2.8.4 2.5.1 4.2-1.4 6.4l-1.9 3 .2-3c.1-2.2-.4-3.2-1.9-3.9-1.1-.5-2.5-1.9-3-3-.5-1.2-1.9-2.2-3.1-2.4-1.3-.2-2.3-1-2.3-2 0-1.2-.3-1.3-1.2-.4-1.5 1.5-4.2 1.6-3.2 0 .4-.7.3-.8-.4-.4-1.4.9-1.6 7.3-.3 7.8 1.3.4-2.2 10.5-4.2 12.6-1.2 1.2-1.9 1.3-3 .4-2.2-1.8-3.8.5-2.6 3.7.7 1.7.7 2.7 0 2.9-1.7.6-1.3 5.9.5 6.6 1.5.6 1.5.8 0 3.1C.1 73.7 0 90 0 251v177h47.9l.6-3.8c.4-2 1-5.1 1.5-6.7.5-1.7 1.1-5.7 1.5-9 1-9.5 3.5-21.4 6.2-28.7 3.2-9 11.7-26.8 14-29.3 1-1.1 5.8-4.9 10.7-8.3 8-5.7 19.2-11.2 33.9-16.6 4.2-1.6 4.7-2.1 4.7-4.8 0-3 0-3.1 2-1.3 1.1 1 1.7 2.2 1.3 2.8-.3.5-.2.8.3.5.5-.4 3.2.7 5.9 2.3 12.3 7.3 26.7 13.3 43.2 18 7.5 2.2 8 2.5 5.9 3.6-6.2 3.3-13.3 8.7-16.7 12.8-2.1 2.5-5.9 6.3-8.4 8.4-2.5 2-6 5.7-7.7 8.2-1.8 2.4-3.5 4.6-3.8 4.9-.3.3-1.7 2.1-3.2 4-1.4 1.9-3.4 4.4-4.5 5.5-3.4 3.7-8.3 10.3-8.3 11.2 0 .9-9.6 15.3-14.6 22-2.8 3.6-2.9 4.3-1 4.3.7 0 3.3-2.8 5.6-6.3 2.4-3.4 5.4-7.5 6.7-9.1 1.4-1.6 3.7-5.4 5.3-8.5 1.5-3.1 3.6-6.5 4.7-7.6 3.5-3.9 11-13.1 15.2-18.7 2.3-3.1 5.6-6.6 7.4-7.8 1.8-1.2 5.2-4.6 7.6-7.5 2.4-2.9 8-7.8 12.5-10.9l8.2-5.5 6.6.9c3.7.6 8.6 1.7 10.8 2.6 4.1 1.6 4.1 1.8 3.9 6.3-.2 5.8.9 10.1 2.7 10.1 1.8 0 3.5-3.4 3.6-7.1.1-2.3.4-2.7 1.5-1.8 2.5 2.2 2.5 0 0-2.5-2.1-2.1-2.5-3.2-2-5.9.6-3.8-1-7.7-3.2-7.7-1.5 0-2 1.6-1.6 5.8.2 2.3-.8 2.8-2.5 1.3-1.2-1.1-8-2.7-16.9-4.1-3.8-.6-9.9-2-13.5-3.2-21.3-6.9-26.8-8.9-34-12.8-1.9-1-5.4-2.9-7.8-4.1-2.3-1.3-5.8-3.8-7.8-5.5-3.2-3-3.4-3.5-2.3-5.6.6-1.2 2.1-3 3.3-4 2.4-2.1 15.9-9.1 19.7-10.2 3.8-1.1 11.5-1.8 10.3-.9-4.7 3.5-5.6 10.6-2.1 16.7 3.4 6 6.9 7.5 29.2 12.1 11.9 2.5 20.6 5.3 27.1 8.9 5.7 3.1 6 3.5 8.2 10.2 1.3 4.1 1.8 7 1.2 7.2-.6.2-.7 1 0 2.1 1.2 2.4 5.6 21.1 6.5 27.6.3 2.7 1.9 9.7 3.5 15.5 1.6 5.8 3.9 14.9 5 20.2 1.2 5.4 2.6 9.8 3.1 9.8 1.9 0 .6-6.8-5.7-29.5-1.8-6.6-3.6-14.4-3.9-17.3-.7-5-5.2-22.3-7-26.6-.6-1.3-.5-1.7.2-1.3.8.5 1.4-1.8 1.8-6.8.4-4.1 1.2-7.9 1.9-8.3.6-.4 4.3-2.1 8.2-3.8 12.4-5.4 22.6-13.2 29.3-22.2 3.3-4.5 4-5 4.5-3.4 1.5 4.5.8 8.9-1.9 13.2-6.2 10.2-10.1 15.3-12.5 16.5-1.4.7-5.2 3.6-8.4 6.5-6.3 5.6-7.6 5.4-7.6-.7 0-1.7-.4-3.4-.9-3.7-1.8-1.2-3.4 2.6-3.5 8.4-.1 4.1-.5 6-1.3 6-.7 0-1.3.5-1.3 1.1 0 .6.6.9 1.4.6.9-.4 1.6.4 2 2.4.4 2 1.1 2.9 2.5 2.9 2.8 0 4.3-2.5 3.9-6.7-.3-3.6-.1-3.8 9.4-11 8.3-6.4 10.5-8.6 15.7-16.8l6.1-9.4 3.3 1.4c1.7.8 8.1 3.9 14.1 6.9 6 3.1 14.5 6.7 19 8.2 14.8 4.8 17.2 6.2 26.4 15.3 9.4 9.2 13.9 15.1 18.3 24.1 3.5 7.3 8.9 24.8 8.9 29.1 0 3.4 1.8 12.8 3.9 20.7l1.2 4.2H428V68l-2.7-1.7c-1.6-.9-3-1.8-3.2-2-.2-.1.4-1.4 1.3-2.7 1.7-2.7 2.3-11.1.6-10.1-.5.3-1-.2-1-1.3 0-2.2-4.6-6.9-5.2-5.2-.6 1.8-5.5-2.6-6.2-5.6-.5-1.7-1.2-2.4-2.1-2-1.7.6-3.9-1.4-6-5.5-1.4-2.6-1.4-3 .5-4.9 1.1-1.1 2-2.7 2-3.6 0-1.2.7-1.5 2.5-1.2 1.4.3 2.8.1 3.1-.3.3-.5-.4-.9-1.5-.9-2.2 0-2.8-1.4-1.1-2.5.6-.3 1-1.5 1-2.6s.4-1.7 1-1.4c.6.3 1 .2 1-.3s-1.1-1.4-2.4-2.2c-1.3-.7-2.7-2.2-3-3.3-.4-1.6-.8-1.8-1.9-.9-.8.7-1.8.8-2.2.4-.5-.4.3.8 1.8 2.6 1.5 1.9 2.7 4 2.7 4.8 0 2.2-4.9 6.7-6.6 6-1.1-.4-1.4 0-1.2 1.7.2 1.2-.1 2.3-.7 2.4-.5 0-.9-.3-.8-.8.2-.5-.4-.9-1.3-.9-.8 0-1.3.4-.9.9.3.5.1 1.2-.4 1.6-1.2.7-8.1-2.1-8.1-3.3 0-.4-1.6-1.4-3.5-2.2-1.9-.8-3.5-2-3.5-2.7 0-1.5 2.6-1.8 3.5-.3.3.5 1.4 1 2.3 1 1.4-.1 1.3-.4-.5-1.9-1.2-1-1.9-2.1-1.6-2.5 1-1-.6-.7-2.5.5-2.7 1.7-7.1-2.6-7-6.9.1-4-.7-4.9-2.8-3.1-1.5 1.2-1.9 1.1-3.2-.9-.8-1.2-2-2.2-2.7-2.2-.8 0-1.5-.6-1.8-1.3-.3-.9-.9-.9-2.5 0-1.3.8-2.3.9-2.7.3-1.3-2-9.5-.9-9.5 1.3 0 .7.4.7 1.2-.1 1.9-1.9 4-1.5 3 .5-1.1 2.1-.5 4.3 1 4.3.6 0 .7-.7.4-1.6-.4-1-.2-1.4.6-1 .7.3 2.1.9 3.1 1.2.9.4 1.7 1.1 1.7 1.6s.6.8 1.3.7c.6-.1 2.2-.1 3.5 0 2.1.1 2.2.2.8 1.7-1.4 1.4-2 4.1-1.7 8.4 0 .8-.6.1-1.4-1.5-.9-1.9-1.4-2.4-1.5-1.3 0 1-.5 1.8-1.1 1.8-1.4 0-.2 5.2 1.4 6.2.8.5.6.8-.5.8-.9 0-2.2-.8-2.8-1.8-.9-1.4-1-1.1-.5 1.3.4 1.6 1.1 3.1 1.6 3.3.5.2.9 1 .9 1.8s.5 1.4 1 1.4c.6 0 1 .7 1 1.6 0 .8-.4 1.3-.9.9-.5-.3-1.2-.1-1.6.4-.3.6-2.4-1-4.7-3.5-2.9-3.2-4.7-4.4-6.1-4-1.3.3-1.7 0-1.3-.9.3-.8.1-1.7-.4-2-.6-.4-1-.2-1 .3 0 .6-.9.8-2 .5-1.1-.3-2.7 0-3.6.8-1.3 1.1-1.9.8-4-1.6-2.3-2.7-2.3-2.9-.7-4.5 1.7-1.6 3.8-.7 2.7 1.2-.9 1.4.2.9 2.6-1.2 2.5-2.2 6.3-2.9 4.2-.8-1.5 1.5-1.6 3.8-.2 3.8.6 0 1-.7 1-1.5s.9-1.5 1.9-1.5c1.1 0 2.2-.4 2.5-.9.3-.5 1.5-.7 2.6-.4 1.1.3 2 0 2-.6s-.9-1.1-2.1-1.1c-1.1 0-1.7-.5-1.4-1 .3-.6 0-1-.7-1s-.1-.8 1.5-1.8c1.5-1 2.4-2.2 2-2.5-1-1-2.5-.8-1.9.2.3.5-.4 1.1-1.7 1.5-3.6 1-3.8.7-2.2-2.4.9-1.7 1.1-3 .5-3-.5 0-1-.8-1-1.7 0-1.4-.2-1.5-1.2-.4s-1 1.4-.1 1.8c2.5.9 1.4 3-1.3 2.5-2-.3-2.4-.9-2.1-2.4.3-1.1.3-2.6 0-3.4-.7-1.8-5.3-1.8-5.3 0 0 2.3-2.8 4-4.4 2.7-.8-.7-2.5-.9-4-.5-1.8.4-2.6.2-2.6-.7 0-1.2-.2-1.2-.9 0-.5.7-3 1.6-5.7 1.9-2.6.3-5.9 1.1-7.3 1.8-1.6.9-2.9 1-3.6.4-.7-.6-1.5-.7-1.8-.4-.3.3-3.8.1-7.8-.6s-7.4-.8-7.8-.3c-.3.4-1.9 1.4-3.5 2.1-2.4 1.1-3.1 1.1-3.7 0-.5-.7-1.6-1.3-2.6-1.3-1.4 0-1.8-.7-1.7-3.3.2-3.2.1-3.2-4.3-3.2-3.1 0-4.2.3-3.7 1.2.7 1-.9 1-6.5-.4-.8-.2-1.6.3-1.9 1.1-.3 1 0 1.2 1.3.7 1-.3 2.8 0 4.1.9 1.9 1.2 2.2 2 1.5 3.8-.7 1.7-1.6 2.2-4.2 2.2-1.9 0-3.7-.5-4.1-1-.4-.6-.8 0-.8 1.1 0 2 .4 2.1 4.5 1.6 3.2-.3 4.5-.1 4.5.8 0 .6-.8 1.4-1.9 1.7-1.3.3-1.7 1.1-1.3 2.5.3 1.4.8 1.6 1.5.9 2-2 2.6-1.1 1.6 2.1-.9 3.5-3.6 6.1-5.1 5.2-.5-.3-1.5 0-2.3.6-.9.7-2.2.9-3.2.4-2.9-1.2-7.3-1-7.3.3 0 .7-.7 1.3-1.5 1.3s-1.5-.4-1.5-.9-.9-1.1-2-1.4c-1.8-.5-2.6-3.6-2.1-8.3.1-1.3-4.6-3.6-5.1-2.5-.2.5-1.4 1.1-2.8 1.5-1.7.5-2.1.4-1.1-.2.8-.6 1.1-1.7.8-2.6-.4-.9-.2-1.6.4-1.6 2 0 .2-2.4-2.2-3-1.5-.4-2.3-1.2-2.1-2.3.2-.9-.2-1.7-.8-1.7-.5 0-1 .4-1 1 0 .5-.4 1-1 1-.5 0-.7-.7-.4-1.5.4-.9 0-1.5-1-1.5-1.5 0-2.1 1.2-1.7 3.3.1.5-.3.6-.9.2-.5-.3-1-1.4-1-2.4 0-.9-.5-2.2-1.2-2.9C223.3-.3 207-.5 207 1c0 .5-.7 1-1.5 1s-1.5-.5-1.5-1c0-.6-1.1-1-2.5-1-1.9 0-2.4.5-2.2 2.1.1 1.2-.4 2.4-1.1 2.6-.8.3-1-.1-.5-1.3.4-1.2.3-1.5-.5-1s-1 .2-.6-.8c.4-1.1 0-1.6-1.4-1.6-1.2 0-2.4.4-2.7 1-.3.5-1.7 1-3.1 1-1.3 0-2.4-.5-2.4-1 0-.6-1.7-1-3.8-1-3 0-4.1.5-5 2.2l-1.1 2.3-.7-2.3c-.5-1.7-1.3-2.2-3.5-2-1.9.2-2.8.7-2.5 1.5.3.7.1 1.3-.4 1.3-.6 0-1-.7-1-1.5 0-1.8-1.6-2-2.3-.3-.4 1-.6 1-.6 0-.1-.8-1.7-1.2-4.6-1.2-3.3 0-4.3.3-3.9 1.3.7 1.8-2 3.9-4 3.1-2.3-.9-2-3.2.7-3.7 1.5-.3 1.2-.5-1.1-.6-3.1-.1-3.3.1-3 2.6.4 3.5-1.8 4.1-2.9.7-.7-2-1.7-2.8-4.1-3-2.6-.3-3.2 0-3.2 1.5 0 1.1-.7 2.6-1.5 3.5-.8.8-1.1 1.7-.6 2 .5.3 1.2-.2 1.5-1.1.6-1.5.8-1.5 2.3 0 .9.9 1.3 2 .9 2.4-.4.4-1.1.1-1.6-.7-1-1.6-1.4-.8-1.1 2.2.2 1.9-1.4 2.4-2.4.8-.3-.6 0-1 .7-1 .7-.1.3-.6-1-1.3-1.2-.7-2-1.5-1.7-1.8.3-.3.7-2 .9-3.7l.3-3.2H130c-5.1 0-6.9.4-7.4 1.5-.3.8-1.2 1.5-2 1.5s-1.6.4-1.8.9c-.1.5-1.4 1.1-2.8 1.3-2.2.3-2.5-.1-2.2-2.2.2-2-.3-2.6-1.8-2.6-1.1 0-2 .4-2 .8s-.7.8-1.5.8c-.9 0-1.2.6-.9 1.5.4.8 1.2 1.5 1.8 1.5.7 0 1.9 1.1 2.6 2.5.8 1.4 2 2.3 2.7 2.1.7-.3 1.5-.1 1.8.4.4.6.1 1-.4 1-.6 0-1.1.9-1.1 2 0 2-2.7 4-5.6 4-1.3 0-1.4-.3-.5-1.4.8-1 .8-1.6-.2-2.5-.8-.6-1.8-.7-2.2-.3-.5.4-.6 0-.2-1 .5-1.4.1-1.5-2.5-.7-2.2.6-3.4.4-4.4-.5-.7-.8-1.2-1.5-1.1-1.7.1-.2-.7.6-1.8 1.7-1.1 1.2-3.3 2.5-4.9 2.9-2.1.4-2.6.9-1.7 1.4 1.5 1 .7 1.5-3 2.5-1.9.4-2.9.1-3.3-1-1.1-2.9-.6-3.4 3.2-3.4 2.1 0 4.7-.7 5.8-1.6 1.8-1.5 1.8-1.5-1-.9-2.3.5-2.7.3-2.3-.9.5-1.2 0-1.6-1.8-1.6-1.9 0-2.5-.6-2.6-2.3-.1-1.9-.2-1.9-.6-.3-.3 1-1.6 2.9-2.9 4.1-2.8 2.6-3 3.5-.9 3.5.8 0 1.5.4 1.5.8s-1.2.7-2.7.7c-1.6-.1-3.3.3-4 .7-.7.6-1.4.4-1.9-.3-.4-.8-.3-.9.4-.5s1.2.1 1.2-.7c0-.7 1.3-2.6 2.9-4.1 1.9-1.8 2.7-3.4 2.4-4.7-.4-1.5 0-1.9 2.3-2 2.9-.2 5.6-.4 8.4-.7 1-.2 1.1-.5.2-1.4-.8-.8-1.5-.8-2.7.2-1 .8-1.5.9-1.5.1C87 .5 85.2 0 82.7 0c-3.4 0-5.1.6-7.6 2.9-1.9 1.7-2.8 3.2-2.2 3.6.6.3 1.1.1 1.1-.6 0-1 .3-1 1.3 0 1 1.1.9 1.4-.1 1.8-.7.3-1.7 1.6-2.2 2.8-.5 1.3-1.8 2.9-2.9 3.5-1.8.9-2.1.7-2.7-1.5-.6-2.3-2.4-3.6-2.4-1.6 0 .5-.9 1.1-2 1.4-1.1.3-2 1.2-2 2.1 0 .9-.5 1.6-1 1.6-1.9 0-3.7-2.4-3.2-4.3.3-1.1-.1-2.3-1-2.8-2.5-1.4-.8-7.4 2-7.3 1.1 0 1.9-.3 1.6-.8C59.1.4 57.6 0 56 0c-2.5 0-2.9.4-2.8 2.9zm112.8.2c0 .5-.7.9-1.5.9-1.5 0-2-1.2-.9-2.3.8-.8 2.4.1 2.4 1.4zm36.4 1.6c-1.7 1.7-1.8 1.7-1.1 0 .4-1 .7-2.4.7-3 0-.8.3-.8 1.1 0 .9.9.7 1.6-.7 3zM184 4.1c0 .5-.7.9-1.5.9-1.5 0-2-1.2-.9-2.3.8-.8 2.4.1 2.4 1.4zm39 2.7c0 1.3-7.4.9-8.8-.4-1.5-1.5-.1-2.7 2.2-1.8.9.4 1.8 0 2.2-.9.5-1.3.8-1.3 2.5.4 1 1 1.9 2.3 1.9 2.7zm-54-1.7c0 .5-.7.9-1.5.9-1.5 0-2-1.2-.9-2.3.8-.8 2.4.1 2.4 1.4zm26.5-.4c.5 1.4.3 1.5-.6.6-.6-.6-1.9-.9-2.8-.6-1.4.4-1.4.3-.1-.6 2.1-1.5 2.7-1.4 3.5.6zm-48.9 4.9c-.8 2.1-1.1 1.7-2-2.1-.7-2.8-.6-2.9 1-1.3 1 1 1.4 2.3 1 3.4zM172 7c0 .5-.4 1-1 1-.5 0-1-.5-1-1 0-.6.5-1 1-1 .6 0 1 .4 1 1zm-12.4 1.6c-.9.8-1.6 2.5-1.7 3.7 0 1.2-.3 1.7-.6 1-.3-1-.9-1-2.3-.1-1.1.7-2.2 1-2.5.7-.8-.9 1.3-6.1 2.2-5.6.5.3 1.7.1 2.8-.4 3.1-1.2 3.8-1 2.1.7zM284 12.2c0 .4-.4.9-1 1.3-.5.3-.6 1.3-.3 2.3.5 1.5.4 1.5-1 .2-.9-.8-2-3.1-2.3-4.9l-.7-3.4 2.6 1.9c1.5 1 2.7 2.2 2.7 2.6zM135.7 9.6c-.3.3-1.2.4-1.9.1-.8-.3-.5-.6.6-.6 1.1-.1 1.7.2 1.3.5zm37.8.4c.3.5.1 1-.4 1-.6 0-1.1-.5-1.1-1 0-.6.2-1 .4-1 .3 0 .8.4 1.1 1zM87 11c0 .5-.4 1-1 1-.5 0-1-.5-1-1 0-.6.5-1 1-1 .6 0 1 .4 1 1zm77 0c0 .5-.4 1-.9 1-.6 0-1.3-.5-1.6-1-.3-.6.1-1 .9-1 .9 0 1.6.4 1.6 1zm208.4 1.1c-.3.5-1 .7-1.5.3-.5-.3-.7-1-.3-1.5.3-.5 1-.7 1.5-.3.5.3.7 1 .3 1.5zM217 12c0 .5-.4 1-1 1-.5 0-1-.5-1-1 0-.6.5-1 1-1 .6 0 1 .4 1 1zm-88.4 3.1c.3.5-.2.9-1 .9s-1.8-.5-2.1-1c-.3-.6-1.5-1-2.6-1s-1.8-.4-1.4-.9c.6-1.1 6.1.5 7.1 2zm6.2-1.7c-.7.8-1.5 1.2-1.7 1.1-.5-.6 1-2.5 2-2.5.5 0 .4.6-.3 1.4zm10.9 1.8c2.9 1.4 4 4.2 1.4 3.3-1.3-.4-2.4.1-3.5 1.7l-1.6 2.2v-2.2c0-1.2.5-2.2 1.2-2.2 2.4 0-2.8-2.9-5.2-3-2 0-2.2-.2-1-1 1.6-1 5.1-.5 8.7 1.2zM119 15c0 .5-.7 1-1.5 1s-1.5-.5-1.5-1c0-.6.7-1 1.5-1s1.5.4 1.5 1zm-21.6 2.5c-1.8 1.3-4.4 1-4.4-.5 0-.9 4-1.8 5.3-1.2.5.2 0 1-.9 1.7zm6.8-.9c-1.3.9-2.6 1.3-3 .9-.8-.8 1.7-2.5 3.8-2.5.9 0 .6.6-.8 1.6zm138.8-.2c0 .8-.4 1.8-1 2.1-.5.3-1-.3-1-1.4 0-1.2.5-2.1 1-2.1.6 0 1 .6 1 1.4zm106.5-.4c.3.5-.1 1-1 1s-1.3-.5-1-1c.3-.6.8-1 1-1 .2 0 .7.4 1 1zm22.5.7c0 .9-.3 1.3-.7 1-.3-.4-1.2-.2-1.9.4-1 .8-1.8.7-3-.6-1.5-1.5-1.5-1.6.9-1 1.4.4 2.8.2 3.1-.4 1-1.6 1.6-1.4 1.6.6zm-315 .1c0 1.3-1.2 2.2-2.2 1.6-1-.6-.1-2.4 1.3-2.4.5 0 .9.4.9.8zm11.5.2c-.3.5-1.4 1-2.3 1-1.5 0-1.5-.2-.2-1 2-1.3 3.3-1.3 2.5 0zm66.1 1.5c.8 3.1.4 3.6-2.3 2.9-1.8-.5-1.9-.9-.9-3 1.4-3.1 2.4-3 3.2.1zm190.2 0c-.3.3-.9-.2-1.2-1.2-.6-1.4-.5-1.5.5-.6.7.7 1 1.5.7 1.8zm-44.5-.8c-.7.3-1.3 1.2-1.3 2 0 1.2-.3 1.3-1.4.4-1-.9-1.5-.8-2 .4-.3.8-1.5 1.5-2.7 1.5h-2.2l2.1-2.3c1.5-1.5 3.4-2.4 5.5-2.4 1.7 0 2.6.2 2 .4zM60.8 19.2c1.5 1.5 1.6 4.8.2 4.8-.5 0-1-.9-1-2s-.4-2-1-2c-.5 0-1-.5-1-1 0-1.4 1.3-1.3 2.8.2zM112 19c0 .5-.4 1-1 1-.5 0-1-.5-1-1 0-.6.5-1 1-1 .6 0 1 .4 1 1zm220.7 2.5c-.4.8-1.1 1.5-1.7 1.5-1.4 0-1.3-2.7.3-3.3 1.6-.6 2.1-.1 1.4 1.8zM362 20c0 .5-.2 1-.4 1-.3 0-.8-.5-1.1-1-.3-.6-.1-1 .4-1 .6 0 1.1.4 1.1 1zm-254 .9c0 1.3-2.9 3.5-3.7 2.8-.7-.8 1.5-3.7 2.8-3.7.5 0 .9.4.9.9zm19.1 2.4c-1.2 1.2-3.1 0-3.1-1.9 0-1.2.3-1.2 2-.2 1.1.7 1.6 1.6 1.1 2.1zm200.2.9c-.2.4.3.5 1.1.2 1-.4 1.6-.1 1.6.9 0 .9-1 1.4-2.5 1.4-1.4 0-2.5-.5-2.5-1.3 0-1-.8-.9-3.5.6-2 1.1-3.7 1.5-4 1-.4-.7-1.3-.7-2.5 0-1.3.7-2.1.6-2.9-.4-1-1.2-.6-1.5 1.8-2.1 1.7-.4 4.5-.5 6.3-.3 2.9.2 3.3 0 3.1-2-.3-2.2-.3-2.3 2.1-.5 1.3 1 2.2 2.1 1.9 2.5zm48.7-3.3c0 .6-.4 1.3-1 1.6-.5.3-1-.1-1-.9 0-.9.5-1.6 1-1.6.6 0 1 .4 1 .9zM122.1 25c.6 0 .7.5.4 1.1-.4.6-1.3.8-2.1.5-.7-.3-1.6-.1-1.9.4-.9 1.5-2.2 1.2-2.9-.6-.3-.9-.2-1.2.5-.8.6.3 1.8-.4 2.7-1.7 1.4-2.1 1.7-2.2 2-.7.2 1 .8 1.8 1.3 1.8zm17.1-.8c-.2 1 0 1.8.6 1.8s.8.9.5 1.9c-.6 2.5-3 1.7-3.5-1.3-.6-2.9-.1-4.3 1.6-4.3.8 0 1.1.8.8 1.9zm5.7 1.8c-2.2 4.6-2.5 4.8-2.5 2 0-1.1.4-2 .9-2s.7-.6.4-1.4c-.4-.9.1-1.7 1.1-1.9.9-.3 1.8-.5 1.9-.6 0 0-.8 1.7-1.8 3.9zm-32.2-2.4c-.3.3-1.2.4-1.9.1-.8-.3-.5-.6.6-.6 1.1-.1 1.7.2 1.3.5zm46.3.4c0 .5-.5 1-1.1 1-.5 0-.7-.5-.4-1 .3-.6.8-1 1.1-1 .2 0 .4.4.4 1zm149.7 1.2c-.3.8-.6.5-.6-.6-.1-1.1.2-1.7.5-1.3.3.3.4 1.2.1 1.9zm-200.4-.5c-.7.2-1.3 1.2-1.3 2 0 .9-.3 1.4-.6 1-1-1 .4-3.7 1.8-3.6 1 0 1 .2.1.6zm21.7.8c0 .8-.4 1.5-1 1.5-.5 0-1-.7-1-1.5s.5-1.5 1-1.5c.6 0 1 .7 1 1.5zm170 0c.9 1 .9 1.5.1 1.5-.6 0-1.1-.5-1.1-1 0-.6-1.1-.8-2.7-.4-4.3 1-4.9 2.2-1.8 3.4 2 .8 2.5 1.4 1.8 2.1-.8.8-1.7.5-3.2-1-3.8-3.8-2.9-5 4.5-6 .6 0 1.7.6 2.4 1.4zm-189.3 2.7c-.3.8-.6.5-.6-.6-.1-1.1.2-1.7.5-1.3.3.3.4 1.2.1 1.9zM336 27c0 .5-.4 1-1 1-.5 0-1-.5-1-1 0-.6.5-1 1-1 .6 0 1 .4 1 1zm-236.7.6c.7.7-1.4 4.4-2.5 4.4-.5 0-.8-.8-.9-1.8 0-1.3-.2-1.4-.6-.2-.3.8-1.1 1.9-1.7 2.3-.7.6-.4.7.7.3.9-.3 1.7-.1 1.7.4 0 .6-.9 1-2.1 1-1.5 0-1.9-.4-1.5-1.6.3-.9.6-2 .6-2.5 0-1.5 5.2-3.4 6.3-2.3zm235.4 3.3c1.6.9 1.6 1-.4 1.1-1.2 0-2.9.3-3.9.7-1.2.4-1.5.3-1-.5.4-.8.2-1-.8-.6-.8.3-1.7 1.3-1.9 2.2-.3 1.2-.5.9-.6-.6-.1-1.9-.5-2.2-2.3-1.7-2.2.6-2.3.6-.3-1 2.1-1.6 8-1.4 11.2.4zm60.6-.1c-.2.6.5 1.2 1.5 1.2.9 0 2.3.9 3 2.1 1.2 1.8 1 2.3-.9 4-2.9 2.5-3.6 2.4-5.4-1.1-1.1-2-2-2.7-3.1-2.3-1.2.4-1.5.2-1-.8.3-.8.9-2.2 1.2-3.2.7-2 5.1-2 4.7.1zM58 31c.9.6 1.7.5 2.1-.2.4-.6 1.2-.7 2-.2.8.5 2.1.7 3 .6 1-.2 1.9.6 2.2 1.8.3 1.2 1.3 2 2.5 2 2.9 0 3.3 1.2 1.3 3.9-1.5 1.9-2.1 2.2-3.7 1.3-1-.6-1.5-1.2-1-1.2 1.8 0-3.8-4-5.6-4-1.8 0-1.8.1-.4 1.6 2.1 2 2 2.6-.4 4.7-1.3 1.1-2 1.3-2 .5 0-.7-.7-.2-1.6 1-.8 1.2-2.2 2.2-3 2.2-.8 0-1.4.5-1.4 1.2 0 .6-.3.8-.7.4-.8-.8 6.2-7.6 8-7.7 1.5-.1-2.3-1.7-4.2-1.8-.7-.1-1.1.5-.8 1.3.4 1 .1 1.3-.9.9-.7-.3-1.4-.9-1.4-1.4 0-.5-.6-.8-1.2-.7-.8.2-1.4-.9-1.6-2.5-.2-1.5.1-2.7.7-2.7s1.1.5 1.1 1.1c0 1.5 3.5.7 3.6-.9.1-.6.2-1.4.3-1.7.2-.8 1.4-.6 3.1.5zm48-.3c0 .5-.5 1.5-1 2.3-.8 1.2-1 1.1-1-.8 0-1.2.5-2.2 1-2.2.6 0 1 .3 1 .7zm17.1 1c1.3 1.6 1.2 1.7-.3.4-1-.7-1.8-1.5-1.8-1.7 0-.8.8-.3 2.1 1.3zM370 31c0 .5-.4 1-1 1-.5 0-1-.5-1-1 0-.6.5-1 1-1 .6 0 1 .4 1 1zm-229.2 3.5c-.6 1.4-1.5 2.5-2 2.5-.6 0-.7-.6-.4-1.3.3-.6.9-2 1.2-2.9.4-1 1-1.5 1.5-1.3.4.3.3 1.7-.3 3zM305 32.6c0 .8-.4 1.2-1 .9-.5-.3-1-1-1-1.6 0-.5.5-.9 1-.9.6 0 1 .7 1 1.6zm49-.6c0 .5-.2 1-.4 1-.3 0-.8-.5-1.1-1-.3-.6-.1-1 .4-1 .6 0 1.1.4 1.1 1zm-225 .4c0 1.1-1.9 1.5-2.5.6-.3-.5.1-1 .9-1 .9 0 1.6.2 1.6.4zm180.4 5.3c-2.9 2.1-5.4 1.6-5.4-1 .1-2.1.1-2.1 1.4-.4 1.3 1.6 1.5 1.5 2.6-1.5l1.2-3.3.9 2.5c.8 1.9.6 2.7-.7 3.7zM87 34c0 .5-.4 1-1 1-.5 0-1-.5-1-1 0-.6.5-1 1-1 .6 0 1 .4 1 1zm238 2c0 .5-.7 1-1.5 1s-1.5-.5-1.5-1c0-.6.7-1 1.5-1s1.5.4 1.5 1zm49 0c0 .5-.4 1-1 1-.5 0-1-.5-1-1 0-.6.5-1 1-1 .6 0 1 .4 1 1zm-251.3 1.9c0 1.1-.6 1.7-1.4 1.4-1.4-.6-1.7-1.6-.6-2.6 1.2-1.3 2.2-.7 2 1.2zM384 37c0 .5-.7 1-1.5 1s-1.5-.5-1.5-1c0-.6.7-1 1.5-1s1.5.4 1.5 1zm-257 2.1c0 .5-.7.9-1.5.9-1.5 0-2-1.2-.9-2.3.8-.8 2.4.1 2.4 1.4zm234-.5c0 .8-.5 1.2-1 .9-.6-.4-.8-1.1-.5-1.6.9-1.4 1.5-1.1 1.5.7zm-221.4.9c1.4 1.3 1.3 1.5-.5 1.5-1.2 0-2.1-.6-2.1-1.5 0-.8.3-1.5.6-1.5s1.2.7 2 1.5zm154.5-.2c-.1.4-.1 1.9-.2 3.4 0 2.5-.1 2.6-.9.8-1.2-2.9-1.2-5.7.1-5.3.6.2 1 .7 1 1.1zM23 46.1c0 1-.5 1.9-1.1 1.9-.7 0-.9 1.1-.6 2.9.4 1.9.1 3.3-.8 4.1-1.1.9-1.2.7-.8-1.1.4-1.5.3-2-.5-1.5-.7.4-1.2 1.3-1.2 2s-1 1.8-2.2 2.4c-1.3.6-1.7 1.1-1 1.1 1.5.1 1.6 2.1.1 2.1-.6 0-1.7-.7-2.5-1.5-.9-.8-1.1-1.5-.5-1.5.6 0 1.1-.7 1.1-1.5s-.7-1.5-1.5-1.5-1.5-.9-1.5-2 .5-2 1.1-2c.5 0 .7-.4.4-1-.3-.5-.1-1.8.5-2.7.9-1.5 1-1.1.6 2-.3 2.7-.1 3.7.7 3.4.7-.2 1.2-2.2 1.1-4.6-.1-4.7 1-5.3 2.4-1.4.6 1.6 1.1 2.2 1.1 1.5.1-.7.6-1 1.2-.6.6.3.3-.8-.6-2.5-.9-1.7-1.3-3.7-.9-4.3 1-1.5 5.4 3.7 5.4 6.3zM182.8 41c-1.4 2.2-2.4 1.9-1.5-.5.4-.8 1.1-1.5 1.7-1.5.6 0 .6.7-.2 2zm26.1 19.7c1.3 16.5 3 24 6.7 28.8 2.2 2.9 2.3 4.5.3 4.5-1.8 0-5.9-5.2-6.9-8.7-1.5-5.4-1.9-10.5-2.3-29.8-.5-19.4.6-17.1 2.2 5.2zM334 40c0 .5-.4 1-1 1-.5 0-1-.5-1-1 0-.6.5-1 1-1 .6 0 1 .4 1 1zm54 .9c0 .4-.9.7-2 .8-1.1.1-2-.4-2-1.2 0-.8.7-1.1 2-.8 1.1.3 2 .8 2 1.2zm13.5-1c.7 1.2-1.2 2.4-2.5 1.6-1.1-.7-.4-2.5 1-2.5.5 0 1.1.4 1.5.9zM350 41c0 .5-.4 1-1 1-.5 0-1-.5-1-1 0-.6.5-1 1-1 .6 0 1 .4 1 1zm-58.8 6.2c.6 1.4.5 1.6-.7 1.2-.8-.4-1.5-1.8-1.4-3.3 0-1.5.3-2 .6-1.1.3.8 1 2.3 1.5 3.2zM58 46.1c0 1.1-.4 1.7-1 1.4-.5-.3-1-1.3-1-2.1s.5-1.4 1-1.4c.6 0 1 .9 1 2.1zm-22.8.1c.6 1.8-1.6 8-2.5 7.2-1.2-1.3-.7-3.6 1.1-5 1.6-1.3 1.6-1.3 0-1.4-1 0-1.8-.5-1.8-1 0-1.4 2.7-1.2 3.2.2zm4.3.8c.3.5-.1 1-1 1s-1.3-.5-1-1c.3-.6.8-1 1-1 .2 0 .7.4 1 1zm24.2 1.7c-.8.7-3.7-.9-3.1-1.9.3-.5 1.2-.4 2 .3.8.6 1.3 1.4 1.1 1.6zM286.5 47c.3.5-.1 1-.9 1s-1.8-.5-2.1-1c-.3-.6.1-1 .9-1s1.8.4 2.1 1zm15.9 2.5c-.6 1.6-2.4 2.1-2.4.7 0-1.1 1.1-2.2 2.1-2.2.5 0 .6.7.3 1.5zm24.6-1.2c0 .2-.9 1.4-2 2.7-1.9 2.2-2 2.2-2 .3 0-1.1.3-2.3.7-2.6.7-.7 3.3-1 3.3-.4zM63.1 51.1c2 1.5 2.1 1.9.7 1.9-1 0-1.8.7-1.8 1.5s-.8 1.9-1.8 2.4c-1.6.8-2.2.4-3.6-2.5-.9-2-1.4-3.9-1.1-4.3.9-1.5 5.1-.9 7.6 1zm344.4 2.8C407 57 406.4 58 405 58c-3 0-3.2-1.7-.5-4.6 1.4-1.5 2.5-3.2 2.5-3.7 0-.6.3-.8.6-.4.3.3.3 2.4-.1 4.6zm-113.3-1.7c-.7.7-1.2.8-1.2.2 0-.6.3-1.4.7-1.7.3-.4.9-.5 1.2-.2.2.3-.1 1.1-.7 1.7zm118.5 0c-.3.8-.6.5-.6-.6-.1-1.1.2-1.7.5-1.3.3.3.4 1.2.1 1.9zm-383.3 2c.7.5.4.8-.6.8-1.2 0-1.8-.7-1.7-2.3 0-1.5.2-1.7.6-.7.3.8 1.1 1.8 1.7 2.2zm389.3 0c-.3.8-.6.5-.6-.6-.1-1.1.2-1.7.5-1.3.3.3.4 1.2.1 1.9zM410 56c0 .5-.5 1-1.1 1-.5 0-.7-.5-.4-1 .3-.6.8-1 1.1-1 .2 0 .4.4.4 1zm-51 1c0 .5-.4 1-1 1-.5 0-1-.5-1-1 0-.6.5-1 1-1 .6 0 1 .4 1 1zM27.8 59.5c-.3.3-.9-.2-1.2-1.2-.6-1.4-.5-1.5.5-.6.7.7 1 1.5.7 1.8zm371.7-.5c-1 1.1-2.2 1.7-2.7 1.4-.5-.3-.1-1.2.9-2 2.7-2 3.9-1.7 1.8.6zM67.7 60.2c-.3.8-.6.5-.6-.6-.1-1.1.2-1.7.5-1.3.3.3.4 1.2.1 1.9zM371 62.5c0 1.5-1.8 3-2.7 2.2-.2-.3-.2-1.5.2-2.6.7-2.3 2.5-1.9 2.5.4zm34-1.5c0 .5-.4 1-1 1-.5 0-.7.6-.4 1.4.3.8-.3 1.9-1.5 2.6-2.5 1.3-2.5 1.2-.5-2.8 1.5-3.1 3.4-4.3 3.4-2.2zm-274 .4c0 .2-.7.7-1.6 1-.8.3-1.2.2-.9-.4.6-1 2.5-1.4 2.5-.6zm50 2.5c0 3.2 5.7 19.9 7.8 22.9 3.1 4.3 2.8 7.7-.4 5.4-2-1.4-5.7-11.8-7.5-21.2-2.2-11.2-2.1-10.3-.9-9.5.6.3 1 1.4 1 2.4zM7.6 65.7c-.4 1-.2 1.3.8 1 2.4-1 2.6 3 .2 5.2-2.6 2.4-4 1.8-2.5-1.1.9-1.6.8-1.9-.3-1.6-1.2.5-3.7-1.8-3.8-3.5 0-1 4.3-2.6 5.3-2 .5.3.6 1.2.3 2zm21.9-.9c-.3.3-1.1 0-1.8-.7-.9-1-.8-1.1.6-.5 1 .3 1.5.9 1.2 1.2zm-9.5-.3c0 .2-.7.8-1.5 1.5-1.2 1-1.5 1-1.5-.2 0-.8.7-1.5 1.5-1.5s1.5.1 1.5.2zm273 1.1c0 1.4-7.3 14-15.3 26.4-4.9 7.6-1.9.6 6-14.1 7-13.1 9.3-16.1 9.3-12.3zm-156 1.9c0 1.6 2.6 10 4.1 13 1.9 4 6.8 18.9 6.4 19.3-.2.3-.8-.4-1.1-1.4-.4-1-3.1-6.9-6-13-5.9-12.4-7.7-19.4-5-19.4.9 0 1.6.7 1.6 1.5zm281-.6c0 .5-.9 1.9-2 3.2-2.1 2.6-2.7 1-.8-2.1 1.3-2.1 2.8-2.7 2.8-1.1zM375 68c0 .5-.4 1-1 1-.5 0-1-.5-1-1 0-.6.5-1 1-1 .6 0 1 .4 1 1zm-123.8 3.2c-.6.8-2.5 5.2-4.1 9.8-2.9 7.9-7.1 15.9-7.1 13.4 0-.5 1.1-3.7 2.4-7 1.3-3.4 2.9-8.4 3.6-11.3 1.4-5.7 3.6-8.9 5.3-7.2.7.7.7 1.4-.1 2.3zm69.8.9c0 .6-5.3 6.4-11.8 12.8-12.4 12.2-19.4 20.8-22.6 27.9-1 2.3-2.3 4.2-2.7 4.2-1.4 0 7.7-16.6 12.4-22.6 5.4-6.9 13.6-15.6 19.2-20.2 4.2-3.4 5.5-3.9 5.5-2.1zm98-.7c0 .2-.7.7-1.6 1-.8.3-1.2.2-.9-.4.6-1 2.5-1.4 2.5-.6zM395.5 76c-1.1 1.7-2.3.1-1.8-2.1.5-1.9.7-1.9 1.5-.5.5.9.6 2.1.3 2.6zM72 84.4c0 1.1-1.9 1.5-2.5.6-.3-.5.1-1 .9-1 .9 0 1.6.2 1.6.4zM88 86c0 .5-.7 1-1.5 1s-1.5-.5-1.5-1c0-.6.7-1 1.5-1s1.5.4 1.5 1zm-2.5 3c.3.5-.1 1-.9 1-.9 0-1.6-.5-1.6-1 0-.6.4-1 .9-1 .6 0 1.3.4 1.6 1zm-27.9 11c3.2 4.4 8.5 7.6 18.9 11.5 7.9 2.9 24.2 11.4 29 15 1.7 1.4 4.8 3.1 6.8 4 2.1.8 3.7 2.2 3.7 3.1 0 2.4-3.9 1.1-11.8-4-3.7-2.3-13.7-7.8-22.2-12.1-18-9-23-12.3-26.5-17.6-3.3-5.1-1.7-5 2.1.1zm55.2 6.8c3.4 2.9 6.2 6 6.2 6.8 0 .8-.1 1.4-.3 1.4-.9 0-17.7-16.9-17.7-17.8 0-.6 1.3.2 2.8 1.6 1.6 1.5 5.6 5.1 9 8zm216-5.6c.2 1-.6 1.9-1.8 2.3-1.2.4-4.4 2.7-7.1 5.1-2.7 2.4-8.5 7-12.7 10.1-4.2 3.1-9 6.8-10.6 8.2-2.7 2.4-2.8 2.5-1.7.4.6-1.2 3.3-3.9 5.9-5.8 2.6-2 7.6-6.4 11.2-9.8 12.9-12.5 16-14.4 16.8-10.5zM11 104.1c0 .6-.4.7-1 .4-.5-.3-1-1.1-1-1.6 0-.6.5-.7 1-.4.6.3 1 1.1 1 1.6zm78 1.3c0 1.1-1.9 1.5-2.5.6-.3-.5.1-1 .9-1 .9 0 1.6.2 1.6.4zm127.5 9.7c7.3 1.3 18 6 18.8 8.3.9 2.2-.6 2-2.8-.4-1.9-2.1-8.5-4.3-16.4-5.5l-4.4-.7 3.4 2.9c1.9 1.6 4.2 3.2 5.2 3.6.9.4 1.7 1.1 1.7 1.7 0 1.2-3.5-.3-4.5-2-.3-.6-1.5-1-2.6-1-1.3 0-1.8-.4-1.3-1.2.5-.8.2-.9-1-.5-.9.4-1.5.3-1.2-.2.9-1.3-2.1-2.2-9.6-2.8-3.8-.3-6.8-1-6.8-1.4 0-.4 2.6-1 5.8-1.2 3.1-.2 6.6-.4 7.8-.5 1.1-.1 4.7.3 7.9.9zm-17.5 6.3c3.6.7 8.5 2.3 11 3.4 5.7 2.7 3.7 2.9-2.4.3-3.5-1.5-4.4-1.7-4-.6.5 1.2-.1 1.1-2.8-.2-4.4-2.3-15.7-3-16.9-1.2-1 1.7-2.3.5-1.6-1.6.8-1.9 7.8-2 16.7-.1zm41.6 1.4c4.1 3 8.3 7.4 5.4 5.7-2.9-1.7-11-7.7-11-8.1 0-1 2-.2 5.6 2.4zm13.5 3.1c2.4 2.1 4.2 4.1 3.9 4.4-.3.3-2.8-1.4-5.5-3.8-2.8-2.4-4.5-4.4-3.9-4.5.6 0 3.1 1.8 5.5 3.9zm-58.8-.2c1.6.9.6 2.3-1 1.4-1-.5-2.9-1.4-4.3-2-2.3-1-2.2-1 1-.5 1.9.4 3.8.8 4.3 1.1zm-33 0c-.7.2-1.9.2-2.5 0-.7-.3-.2-.5 1.2-.5s1.9.2 1.3.5zM187 128c1.9.6.9.8-3.7.9-3.6.1-6.3-.3-6.3-.9 0-1.2 6.4-1.2 10 0zm59.5 3.1c5.7 1.6 19.3 8.6 23.9 12.2 2.1 1.7 4.7 5.1 5.8 7.6 1.8 4.1 1.9 6 1.4 16.8-.4 7.5-.2 14.1.5 17.3.6 2.8.9 5.4.6 5.6-1.1 1.2-5.8-.9-5.5-2.5.4-2.6-1.9-5.7-5.2-7.1-3.8-1.6-20.3-.8-22.5 1-.8.7-1.5 2.5-1.5 4.1 0 2.2.5 2.9 1.9 2.9 1.1 0 2.3-.5 2.6-1 .7-1.2 16.2-1.2 19 0 1.4.6-.3.9-5.3.9-4.5.1-9.6.9-13.4 2.2-9.6 3.2-16 2.9-24.3-1.4-8.8-4.5-18.6-6.2-31-5.3-4.9.4-12.7.9-17.2 1.2-7.1.6-8.3.4-8.3-.9 0-.9.4-1.8.9-2.1.4-.3 1.1-2.4 1.4-4.7.3-2.2 1.3-4.9 2.2-5.9 2.7-3 3.3-7.1 1.9-12-1.8-6.1-1.7-13.4.4-19.5 1.6-4.6 2.1-5.1 6.7-6.8 8.3-3.1 24.2-4.6 43.5-4.2 9.6.2 19.3.9 21.5 1.6zm21.5 5.3c0 .5-1.3-.3-3-1.9-1.6-1.6-3-3.3-3-3.9 0-.5 1.4.3 3 1.9 1.7 1.6 3 3.3 3 3.9zm-117.2-2.9c-.3.3-.9-.2-1.2-1.2-.6-1.4-.5-1.5.5-.6.7.7 1 1.5.7 1.8zm6.8 1.3c-1.7 1.6-1.8 1.6-.5-.5.7-1.2 1.5-2 1.8-1.7.3.2-.3 1.2-1.3 2.2zm15.5-1.2c-1.9.8-3.9 1.3-4.5 1-1.4-.5 3.2-2.5 5.9-2.5 1.3 0 .9.5-1.4 1.5zm87 .1c1.3 1.6 1.2 1.7-.3.4-1.7-1.3-2.2-2.1-1.4-2.1.2 0 1 .8 1.7 1.7zm81.7.5c-.2.6-3.5 2.4-7.4 4-3.8 1.5-9.1 3.9-11.8 5.3-7.2 3.8-6.8 2.2.6-1.8 15.1-8.4 19.4-10.1 18.6-7.5zm-306.1 4c-.3.8-.6.5-.6-.6-.1-1.1.2-1.7.5-1.3.3.3.4 1.2.1 1.9zm41.6 2.8c6.5 1.7 13 3.7 14.5 4.5 3.5 1.8 1.6 1.9-3.6.1-4.9-1.8-32-5.8-33.3-5-.5.3-.9-.5-.9-1.7 0-2.1.3-2.1 5.7-1.5 3.2.4 11.1 2 17.6 3.6zm196.4 1.7c-.3 1-.5.2-.5-1.7s.2-2.7.5-1.8c.2 1 .2 2.6 0 3.5zM163 140.5c-2.4.8-4.6 1.2-4.9 1-.7-.7 4.2-2.4 6.9-2.4 1.7 0 1.1.5-2 1.4zm-18.8 3.7c-.7.7-1.2.8-1.2.2 0-1.4 1.2-2.6 1.9-1.9.2.3-.1 1.1-.7 1.7zm23.1 3.5c4 2 2.8 2.7-1.6.8-2-.8-4.8-1.5-6.2-1.5-1.4 0-2.5-.5-2.5-1.1 0-1.4 6.3-.3 10.3 1.8zm-22.6.5c-.3.8-.6.5-.6-.6-.1-1.1.2-1.7.5-1.3.3.3.4 1.2.1 1.9zm8 0c-.3.8-.6.5-.6-.6-.1-1.1.2-1.7.5-1.3.3.3.4 1.2.1 1.9zm-5.8 7.3c0 .5-.4.3-.9-.5s-.9-2.2-.9-3c0-1.6 1.7 1.6 1.8 3.5zm133.4-1.5c.3 1.1.1 2.3-.4 2.6-.5.3-.9-.6-.9-2 0-3.1.6-3.4 1.3-.6zM118 156c0 .5-.8 1-1.7 1-1.5 0-1.6-.2-.3-1 1.9-1.2 2-1.2 2 0zm49.3 9.7c-.7.2-1.9.2-2.5 0-.7-.3-.2-.5 1.2-.5s1.9.2 1.3.5zm187.5 1.6c.2.9-.3 1.7-1 1.7s-4.5 1.3-8.3 2.9c-5.9 2.4-29.7 8.2-33 8-.6 0 5.3-1.9 13-4.3 7.7-2.3 16.7-5.7 20-7.4 6.5-3.4 8.8-3.6 9.3-.9zm-246-.1c2 2 1.4 2.7-1.6 1.9-1.5-.5-5-.5-7.7 0-2.8.4-8.1.8-12 .7h-7l9-1.4c4.9-.8 9.4-1.6 10-1.8 2.2-.9 8.2-.5 9.3.6zm36.7 1.7c-.8 1.7-2.1 3.3-2.7 3.7-.8.5-.7-.1.3-1.6.8-1.4 1.9-3.1 2.3-3.8 1.5-2.5 1.6-1.1.1 1.7zm-7.8 10.3c-.3.8-.6.5-.6-.6-.1-1.1.2-1.7.5-1.3.3.3.4 1.2.1 1.9zm3.5 6.5c-.6 1-2.5 3.1-4.3 4.8-3.2 2.8-3.1 2.8.4-1.3 2-2.3 3.7-4.7 3.7-5.4 0-.6.3-.9.6-.6.3.4.1 1.5-.4 2.5zm-3.8.8c-.4.8-1.1 1.5-1.6 1.5-.6 0-.5-.6.2-1.5.7-.8 1.4-1.5 1.6-1.5.2 0 .1.7-.2 1.5zm68.6 1.6c0 .5-1.3.7-3 .5-4.6-.5-7.1 4.3-4.8 9.4 1.4 3.2 2.3 3.7 3.1 1.7.4-.8.6-.6.6.4.1 1.1 1 1.5 2.9 1.4 5.5-.4 7.1-1.4 7.8-5.3.4-2 1.1-4 1.6-4.3.5-.3-1.1-1.2-3.4-1.9-3.2-1-3.7-1.5-2.2-1.7 3.2-.6 12.7 3.4 16.9 7l3.8 3.3-3.9 5.3c-7.4 10.4-6.6 10-19 9.4-6-.2-12.1-.9-13.6-1.5-3.2-1.2-4.6-4.9-5.5-15l-.6-6.8 3.4-1.4c3.6-1.6 15.9-2 15.9-.5zm-55.6 1.4c1.8.9 4 2.8 4.9 4.4 2.3 4 6.3 4.8 9.3 2 1.3-1.2 2.4-3.1 2.6-4.2.3-1.8 1-2.1 6-2.1 4-.1 5.8.3 5.8 1.1 0 .7.7 1.3 1.5 1.3 2.1 0 3.1 2.6 4.4 10.9.6 4 1.6 8.1 2.1 9.1 1 1.8 8.9 3.3 24 4.5 8.9.7 10.6-.2 16.4-9 2.9-4.3 4.3-5.5 7.1-6.1 6-1.1 7.7 0 11.3 7 4.2 8.1 6.2 8.9 22.9 9 10.4.1 12.2.3 11.8 1.6-.2.8-1.1 4.3-2.1 7.7-1 3.7-2.1 6-2.7 5.6-.6-.4-.7-.1-.3.6.5.7.1 1.7-.7 2.4-.9.7-2.5 4.4-3.6 8.3-1.9 6.3-9 20.9-10.9 22.4-.4.3-2 2.2-3.5 4.3-1.6 2-5.2 5.3-8 7.2-5.1 3.5-8.5 4.6-7.1 2.3.4-.7.3-.8-.5-.4-.6.4-.9 1.1-.6 1.6.8 1.3-11.9 5-17 5-4.7 0-7.7-.8-7.1-1.9.2-.3-.8-.7-2.2-.7-3.5-.2-16.3-6.4-15.6-7.5.3-.5-.2-.6-1-.3-.9.3-1.6.2-1.6-.2 0-.5-1.4-1.5-3.1-2.3-4-1.7-14.5-11.6-17.5-16.3-2.8-4.3-3-5.6-.9-3.8.9.7 1.8 1 2.2.6.9-.9-.2-1.7-2.6-1.9-1.3-.1-2.4-1-2.7-2.4-.4-1.3-1-2.3-1.4-2.3-1.5 0 1.1 7.3 4.5 12.6 4.2 6.6 10.9 12.3 24.2 20.7 13.1 8.2 19.1 10.2 28.8 9.4 3.8-.3 7.8-.9 8.9-1.3 1.6-.6 1.7-.4.8 1.2-1.9 3.7-4.2 16.4-4.2 23.6 0 11.2-3.2 15.3-14 18-6.2 1.6-8.5 1.3-21-3-4.7-1.6-11.6-3.5-15.4-4.3-6.2-1.2-7.1-1.7-9.2-5-3.3-5.3-3.7-7.8-1.9-12.9 2.7-7.7 2.9-17.3.6-31.5-3.7-22.6-10.2-44.6-12.2-41.3-.6.9-.9.3-.9-1.7 0-1.7.5-3.6 1.2-4.3 1.8-1.8.1-1.4-2.2.5-1.5 1.3-1.7 1.9-.7 2.6.8.6.6.7-.6.3-1-.3-2.6 0-3.7.6-1.5 1-2.6.9-5.4-.5-3.9-1.8-6.1-5.2-7.1-11.2-.4-2.2-1.4-5.2-2.1-6.7-1.7-3.2-1.9-15.4-.4-19.5 2-5.3 6.3-6.7 12.4-3.8zM276 193c1.9.6 4.1 1.4 4.8 1.9 2.2 1.3 1.7 9-.8 14.8-1.9 4.5-2.7 5.3-5.6 5.9-2.8.5-12.2-.5-20.1-2.2-1.3-.2-2.9-1.8-3.8-3.4-1.7-3.3-2-5.4-.5-4.5.6.3 1 .1 1-.5s.5-.8 1.1-.4c.6.4 2.6 1 4.5 1.4 2.9.7 3.5.4 5.1-1.9.9-1.4 1.6-3.6 1.5-4.9-.2-2 .2-2.2 2.6-1.6 1.9.5 2.4.3 1.7-.4-.6-.6-1.9-1.3-3-1.5-1.1-.2-3.2-.7-4.6-1.1-1.5-.4-4.3-.3-6.3.2-2 .6-3.6.7-3.6.3 0-2.4 19.4-4 26-2.1zm-176.9 4.1c-7 1.4-18.9 5.6-27.6 9.8-7.9 3.8-10.8 4.3-8.4 1.4 3.6-4.2 27.2-12.1 36.4-12.1h4l-4.4.9zm149.6 1.4c-.2.5 0 2 .4 3.2 1.2 3.4-.8 2.8-2.6-.7-1.9-3.7-1.9-3.9.5-3.7 1.1.1 1.9.6 1.7 1.2zm99.7 14.5c3.5 1.3 3.4 3.4-.1 2.7-4.2-.8-29.7 1.4-30.6 2.7-.6.7-.7.6-.4-.4.4-1.6 3.2-2.2 18.7-4.4 5.2-.8 9.6-1.4 9.7-1.5.1-.1 1.3.3 2.7.9zm-240.9 19.1c-11.7 6.1-15.5 8.7-17.3 12-1.9 3.2-4.2 3.9-4.2 1.2 0-3 7.3-8.5 17-12.9 12.2-5.4 14.9-5.6 4.5-.3zm246.4.8c11 .4 15.6 1 15.9 1.8.6 1.9-19 1.7-34.1-.3-6.7-.9-14.8-1.4-17.9-1.2-3.1.2-5.5.1-5.2-.4.6-.9 17.8-.9 41.3.1zm-21.2 17.2c10.9 1.2 14.3 2.2 14.3 4.4 0 1.8-.9 1.9-4.5.5-3-1.2-26.4-4.8-34-5.3-2.7-.2-.6-.4 4.8-.5 5.4-.1 14.1.3 19.4.9zm-212.8 2.8c2 1.3.4 3.1-2.8 3.1-4.2 0-8 1.5-28.1 11.2-10.2 4.9-21.4 10.1-25 11.5-3.6 1.4-6.9 2.9-7.5 3.3-1.4 1-4.5 2-4.5 1.5 0-.4 20.8-11.4 40.5-21.5 9.7-4.9 22.1-9.9 25-9.9.6-.1 1.6.3 2.4.8zm190.8 21.7c7.1 3.1 22.2 6.4 30.8 6.6 4.5.2 6.5.6 6.5 1.5 0 .7-.4 1.3-1 1.3-.5 0-1 .4-1 1 0 .5 1 1 2.3 1 3.8 0 6.7 1.2 6.7 2.6 0 .8-.9 1.4-2.1 1.4-4.2 0-23.8-5.1-36.4-9.4-14.9-5.1-19.3-7.1-17.3-7.9 2.8-1.1 5.9-.6 11.5 1.9zm-195.3 5c-6 3-14 7.7-17.9 10.3C89.9 295 87 296.4 87 295c0-2.1 8.4-7.6 20.5-13.5 11.6-5.7 14.8-7 17.9-7.4.5 0-4 2.4-10 5.5zm177.4 9.8c1.5.8 7.2 2.3 12.7 3.5 15.6 3.3 23 5.6 23 7.2 0 1.9-1.1 1.7-15.5-2.6-13.5-3.9-27.6-9.4-24.7-9.5 1 0 3 .6 4.5 1.4zm-82.9 67.4c0 1.5-.4 3.6-.8 4.7-.7 1.7-.8 1.7-1.3-.8-.7-3.4.2-7.8 1.3-7.1.5.3.9 1.7.8 3.2zm26 3.6c-.9.8-1 .5-.5-1.4.3-1.4.7-3.4.7-4.5.1-1.1.4-.5.6 1.4.3 1.9-.1 3.9-.8 4.5z"/><path d="M62.5 34c.4.6 1.1.8 1.6.5 1.4-.9 1.1-1.5-.7-1.5-.8 0-1.2.5-.9 1zM15.5 53.1c-.9 2.8-.2 3.3 1.3.9.6-1.1.8-2.1.3-2.5-.5-.3-1.3.4-1.6 1.6zM59 52.1c0 .5.5.7 1 .4.6-.3 1-.8 1-1.1 0-.2-.4-.4-1-.4-.5 0-1 .5-1 1.1zM191.8 175c-3.6 1.9-5.7 4-4.1 4 11.2.3 18.2 1.3 25.4 4 8.2 3 12.3 3.1 13.3.5.3-.8-1-2.7-2.9-4.3-6.4-5.6-24.4-8-31.7-4.2zM235.3 179.5c0 2.2.2 3 .4 1.7.2-1.2.2-3 0-4-.3-.9-.5.1-.4 2.3zM193 191.2c-1.9 3-2.1 6.8-.3 6.1 1-.4 1.1-.9.2-1.9-.9-1.1-.5-1.6 1.5-2.5 1.4-.7 2.6-1.6 2.6-2.1s-.4-.7-.9-.4c-.5.4-1.1.2-1.3-.4-.2-.6-1 0-1.8 1.2zM216.9 193.2c1.5 2.1 3.1 2.3 3.1.6 0-.6-.3-.8-.7-.5-.3.4-1.3.1-2.2-.6-1.4-1.1-1.4-1-.2.5zM216.5 197.1c-1.1 1.6-.1 1.9 1.3.3.7-.8.8-1.4.3-1.4s-1.3.5-1.6 1.1zM215.4 202.6c-1.8 1.4-1.8 1.5.4.4 1.2-.6 2.2-1.3 2.2-1.5 0-.8-.5-.6-2.6 1.1zM140.6 193.2c-1.1 1.6-1.5 4.3-1.4 8.8l.1 6.5.6-7.3c.6-7.6 1.6-9.2 5.8-9.2 1.2 0 3.5 1.4 5.2 3.1 1.7 1.7 3.1 2.6 3.1 2.1 0-.6-1.4-2.2-3.1-3.6-3.8-3.3-8.2-3.4-10.3-.4z"/><path d="M143.4 200.5c-.4.9-.4 1.9 0 2.2.3.4.6-.1.6-1 0-2 1.1-2.2 2.9-.5 1.1 1.1 1.3 1 .9-.2-.7-2.1-3.7-2.5-4.4-.5zM163.1 200.2c0 .9-.4 2.5-.7 3.5-.5 1.7-.5 1.7.6 0 .6-1 .9-2.5.7-3.5-.4-1.5-.5-1.5-.6 0zM240.1 206.7c1.1 5 3.7 12.3 4.8 13.7.5.6 1.1 2.7 1.3 4.6.4 4.5 2.2 4.6 2.6.2.2-2.4-.4-4.5-2.2-7-1.4-2.1-3.3-6.3-4.3-9.5-1.9-6.4-3.6-7.8-2.2-2zM148.1 205.6c-1.5 1.1-2.1 2.5-1.9 4.7l.1 3.2.4-3.2c.5-4.1 3.7-6.2 5.2-3.6.9 1.6 1 1.6 1.1.2 0-2.4-2.4-3-4.9-1.3zM153.4 211.6c-.4 1.4-.2 3 .4 3.6.8.8.9.5.5-1.1-.3-1.1 0-2.8.7-3.6.8-1 .9-1.5.1-1.5-.6 0-1.4 1.2-1.7 2.6zM166.1 213.6c0 1.1.3 1.4.6.6.3-.7.2-1.6-.1-1.9-.3-.4-.6.2-.5 1.3zM166 217.5c0 .8.4 1.5 1 1.5.5 0 .7-.7.4-1.5-.4-.8-.8-1.5-1-1.5-.2 0-.4.7-.4 1.5zM218.6 221.2c-1.8 2.5-2.1 6.4-.6 7.3.6.4 1-.8 1-2.7 0-1.9.5-3.9 1.2-4.6.6-.6.9-1.4.6-1.7-.3-.4-1.3.4-2.2 1.7zM147 222.8c0 .4 1 .9 2.2.9 1.8.2 2 0 .8-.7-1.8-1.2-3-1.3-3-.2zM224 227.9c0 1 4.7 2.1 5.4 1.3.3-.3.3-.9 0-1.3-.7-1.2-5.4-1.2-5.4 0zM240 230c0 .5.9 1 2 1s2-.5 2-1c0-.6-.9-1-2-1s-2 .4-2 1zM171.6 237.9c-.5 4.8-.4 6.6.6 7.2 1.8 1.1 2.3.2.8-1.6-1-1.2-1-2.1-.1-3.8.7-1.4.8-3.3.3-5.2-.8-2.7-.9-2.3-1.6 3.4z"/><path d="M175.1 235c0 1.4-.4 3.6-.7 5-.5 2.2-.4 2.3.6.7.6-.9.9-3.2.7-5-.3-2.5-.4-2.6-.6-.7zM169.2 236c0 1.4.2 1.9.5 1.2.2-.6.2-1.8 0-2.5-.3-.6-.5-.1-.5 1.3zM229 236.5c0 .8.2 1.5.4 1.5s.6-.7 1-1.5c.3-.8.1-1.5-.4-1.5-.6 0-1 .7-1 1.5zM233.2 237c0 1.4.2 1.9.5 1.2.2-.6.2-1.8 0-2.5-.3-.6-.5-.1-.5 1.3zM239 238.6c0 .7 1.1 1.9 2.5 2.8 1.4.9 2.5 1.2 2.5.6s-.8-1.4-1.7-1.7c-1-.4-2.1-1.1-2.5-1.7-.5-.8-.8-.8-.8 0zM218.1 241.6c-6 1.6-12.1 4.3-12.1 5.3 0 .4 1.5 1.4 3.3 2.3 1.7.9 6.2 3.2 9.8 5 5.4 2.9 7.7 3.5 13.6 3.7l7.1.2 5.2-4.8 5.2-4.8-5-3.2c-3.5-2.3-6.9-3.6-11.8-4.3-8.5-1.2-8.7-1.2-15.3.6zM179.1 242.6c0 1.1.3 1.4.6.6.3-.7.2-1.6-.1-1.9-.3-.4-.6.2-.5 1.3zM250 245.7c0 .6.8 1.7 1.8 2.4 1.6 1.3 1.6 1.3.2-.6-.8-1.1-1.6-2.2-1.7-2.4-.2-.2-.3 0-.3.6zM175.7 246.7c-1.4 1.3-.6 3.3 2.4 6.4 2.4 2.5 2.8 3.4 1.7 4-1.1.7-1.1.9.1.9 1 0 1.1.3.2 1.3-1.2 1.5.3 3.7 2.7 3.7.7 0 1.1.4.8.8-.5.8 2.8 4.2 4.1 4.2.3 0 1.4.6 2.2 1.4.9.8 3.3 2.1 5.3 2.9 3.6 1.5 3.7 1.5 2.6-.3-.7-1.1-1.4-1.7-1.7-1.5-.4.5-3.5-3.4-3.7-4.8-.1-.4-.2-1-.3-1.5-.1-.4-.5-.1-1 .7-.6 1-1.3 1-2.8.2-1.1-.5-2.3-.7-2.7-.4-.3.3-.6-.1-.6-.9 0-.9-.7-1.8-1.5-2.2-1.9-.7-2-4.6-.1-4.6 2.1 0-.2-5.8-3.4-8.7-2.7-2.4-3.3-2.7-4.3-1.6zm14.3 20.9c0 .2-.9 0-2-.6s-2-1.3-2-1.6c0-.2.9 0 2 .6s2 1.3 2 1.6zm4 2.6c0 .6-.6.5-1.5-.2-.8-.7-1.5-1.4-1.5-1.6 0-.2.7-.1 1.5.2.8.4 1.5 1.1 1.5 1.6z"/><path d="M176.3 256.4c.4 1 .7 2 .7 2.2 0 .2.4.4.9.4 1.4 0 .6-3.3-.9-3.8-.9-.3-1.1.1-.7 1.2zM186.7 256.7c-.4.3-.7 1.1-.7 1.7 0 .6.5.5 1.2-.2.6-.6.9-1.4.7-1.7-.3-.3-.9-.2-1.2.2zM183 259c0 .5.5 1 1 1 .6 0 1-.5 1-1 0-.6-.4-1-1-1-.5 0-1 .4-1 1zM188 260c0 .5.5 1 1.1 1 .5 0 .7-.5.4-1-.3-.6-.8-1-1.1-1-.2 0-.4.4-.4 1zM200.6 276.9c.9 1 4.4 1.1 4.4.1 0-.5-1.1-.9-2.5-.8-1.3.1-2.2.4-1.9.7zM209 278.5c0 2.4.2 2.7 1.1 1.5.8-1.1 1.2-1.2 1.6-.2.6 1.6 2.3.6 2.3-1.5 0-1-.6-1.3-1.7-.9-.9.4-2 .1-2.5-.6-.5-.8-.8-.2-.8 1.7zM224.6 276.9c-.4.6-.3 1.9.3 2.8.9 1.7 1 1.7 1.7 0 .8-2.1-1-4.5-2-2.8zM220.1 278.9c-.7.5-.9 1.1-.4 1.4.5.3 1.5.2 2.2-.2.7-.5.9-1.1.4-1.4-.5-.3-1.5-.2-2.2.2zM215.4 295.5c.4 1 0 2.8-.9 4.1-1.6 2.5-.8 3.3 1.3 1.2 1.5-1.5 1.6-5.5 0-6.4-.8-.5-.9-.2-.4 1.1zM268.6 200.7c-.6 1.4-.5 1.5.5.6.7-.7 1-1.5.7-1.8-.3-.3-.9.2-1.2 1.2zM93.4 2c0 1.2.4 1.6 1.1 1.1 1.7-1.3 5.4-1.9 5.9-1 .2.5.3.4.2-.3-.1-.7-1.8-1.3-3.7-1.4-2.8-.2-3.5.2-3.5 1.6zM238.8.7c.7.3 1.6.2 1.9-.1.4-.3-.2-.6-1.3-.5-1.1 0-1.4.3-.6.6zM255 .7c1.4.3 3.1 1 3.8 1.5.9.8 1.2.6 1.2-.6s-.9-1.6-3.7-1.5c-2.8.1-3.1.3-1.3.6zM288.6 1.1c.3.5-.2 2.2-1.2 3.7l-1.7 2.7 3.2-2.9c3.6-3.5 3.8-4.1 1.1-4.3-1.1-.1-1.8.3-1.4.8zM299.5 1c.3.5.8 1 1.1 1 .2 0 .4-.5.4-1 0-.6-.5-1-1.1-1-.5 0-.7.4-.4 1zM238 3c0 .5.5 1 1.1 1 .5 0 .7-.5.4-1-.3-.6-.8-1-1.1-1-.2 0-.4.4-.4 1zM247.5 2.8c-1 1.1.9 2.2 3.6 2.2 2 0 2.9-.4 2.7-1.3-.4-1.1-5.3-1.8-6.3-.9zM261 4c0 .5.5 1 1 1 .6 0 1-.5 1-1 0-.6-.4-1-1-1-.5 0-1 .4-1 1zM243 5c0 .5.4 1 .9 1 .6 0 1.3-.5 1.6-1 .3-.6-.1-1-.9-1-.9 0-1.6.4-1.6 1zM407.1 4.7c0 .4.4 1.7.9 2.8.8 1.9.9 1.9.9-.2.1-1.2-.3-2.5-.9-2.8-.5-.3-1-.3-.9.2zM86.5 6c.3.5.8 1 1.1 1 .2 0 .4-.5.4-1 0-.6-.5-1-1.1-1-.5 0-.7.4-.4 1zM109.5 9.1c-.4.6-.5 1.2-.2 1.5.2.3.7-.2 1-1.1.7-1.7.1-2-.8-.4zM243.8 8.7c-2.5.3-3.8.9-3.8 1.9 0 1.6 2.6 1.9 3.5.3.4-.6 2.3-1 4.4-.9 5.6.3 7.1.1 7.1-1 0-1-3.7-1.1-11.2-.3zM256.5 9c-.3.5-.1 1 .4 1 .6 0 1.1-.5 1.1-1 0-.6-.2-1-.4-1-.3 0-.8.4-1.1 1zM395.8 10.7c.7.3 1.6.2 1.9-.1.4-.3-.2-.6-1.3-.5-1.1 0-1.4.3-.6.6zM3 18.6c-1.2 1.3-1.1 1.7.1 2.4.8.6 1.8.5 2.3 0 .6-.6 1.9-1 3-1 2.4 0 1.1-1.5-2-2.4-1.4-.4-2.6-.1-3.4 1zM391 21c0 .5.5 1 1.1 1 .5 0 .7-.5.4-1-.3-.6-.8-1-1.1-1-.2 0-.4.4-.4 1zM24 27c0 1.3.5 1.8 1.5 1.4.8-.4 1.5-1 1.5-1.4 0-.4-.7-1-1.5-1.4-1-.4-1.5.1-1.5 1.4zM416.5 27c-.8 1.3.5 1.3 2.5 0 1.3-.8 1.3-1-.2-1-.9 0-2 .4-2.3 1zM426.5 28c.3.5.8 1 1.1 1 .2 0 .4-.5.4-1 0-.6-.5-1-1.1-1-.5 0-.7.4-.4 1zM3.7 30.6c-.6 3.2 0 5.1 1.6 5.7.8.3 1.2-.9 1.2-3.6 0-4.6-2-6.1-2.8-2.1zM413 30.1c0 .5.5.7 1 .4.6-.3 1-.8 1-1.1 0-.2-.4-.4-1-.4-.5 0-1 .5-1 1.1zM21 31.5c0 .3 1.1 1.8 2.5 3.3 1.4 1.5 2.1 2.8 1.5 3-1.3.5-1.3 2.2-.1 2.2 2.3 0 2.2-4.2 0-6.6-2.1-2.2-3.9-3.1-3.9-1.9zM424.1 34.8c-.9 1.8-1.8 2.2-3.6 1.8-1.7-.4-2.4-.1-2.8 1.3-.4 1.7-.1 1.8 1.7 1.2 1.1-.5 2.4-.9 2.9-.9 2.1-.3 3.9-2.1 3.5-3.8-.4-1.7-.5-1.7-1.7.4zM413.1 35.9c-1.8 1.2-.6 4.2 1.4 3.5.8-.3 1.5-1.5 1.5-2.5 0-2.1-.8-2.3-2.9-1zM415 37c0 .5-.5 1-1.1 1-.5 0-.7-.5-.4-1 .3-.6.8-1 1.1-1 .2 0 .4.4.4 1zM.8 37.3c-1.2 2.8-.9 12.5.3 13.2 1.6 1.1 2.3-.3 1-1.9-1.1-1.3-1-1.5.6-1.2 1 .2 2.7-.2 3.6-.9 1.7-1.3 1.7-1.4-.2-2-1.2-.3-2.5-.4-3 0-.6.3-1.1-1.5-1.3-4.2-.2-3.3-.5-4.2-1-3zM156.8 330.7c.7.3 1.6.2 1.9-.1.4-.3-.2-.6-1.3-.5-1.1 0-1.4.3-.6.6zM261.5 339.6c1.1.8 4.4 2.2 7.4 3.1 2.9.8 6.8 2.3 8.5 3.3 1.7 1 6.8 3 11.3 4.5 4.5 1.4 10.8 4.5 14 6.7 3.2 2.2 8.2 5.5 11.1 7.4 3.1 2.1 5 4 4.6 4.6-.4.7-.3.8.4.4s2.3.9 3.9 3.3c1.6 2.1 4.9 5.2 7.5 6.7 3.9 2.3 5.2 3.8 7.9 9.8 1.8 3.9 3.1 7.5 3 7.9-.1.5.2.6.7.3.5-.3 3.3 1.2 6.2 3.4 3 2.2 5.5 4 5.6 4 1.3 0-1.6-3.2-5.8-6.4-3.7-2.9-5.7-5.5-7.5-9.5-2.8-6.4-5.5-9.6-9.8-11.7-1.6-.9-4.7-3.7-6.7-6.3-2.8-3.8-3.4-5.1-2.5-6.2 1-1.1.9-1.1-.5 0-1.5 1.1-2.3 1-5-.7-1.8-1.2-4.2-2.9-5.3-3.9-5.5-4.9-12.2-8.6-20.6-11.3-5.1-1.7-10.6-3.9-12.3-4.9-1.7-1.1-4.9-2.3-7.1-2.6-2.2-.4-5.2-1.4-6.7-2.1-3.6-1.8-4.8-1.7-2.3.2zM114.6 349.5c1.8 4.1 1 12.8-1.7 18-13.7 26.4-14 27-3.4 9 3.6-6 6.8-12.5 7.1-14.3.9-4.5-.1-12.1-1.6-13.5-1-1-1.1-.8-.4.8zM71.2 358.7c-3.3 11-4.3 15-6.2 26.2-2.5 14.3-4.3 22.5-5.1 23.1-.4.3-1.6 4.1-2.8 8.5-1.2 4.4-2.4 8.8-2.7 9.7-.4 1.4.1 1.8 2 1.8 2 0 2.7-.6 3.2-2.8.3-1.5 1.4-5.6 2.4-9.2 2.4-8.5 7-29.9 8.1-37.5.9-6.3 2.1-12.2 3.8-19 2.5-9.7.1-10.3-2.7-.8zM85.1 363.2c1.3 6.8 1.1 15.4-.5 16.7-1.8 1.5-4.2 11.7-5.6 24.1-.7 5.8-1.6 12.9-2.1 15.9-1.3 7.9-1.2 8.1 2 8.1 2.7 0 3-.3 3.5-4.8.6-4 2.5-31.1 2.6-35 0-.6.5-1.2 1-1.2.6 0 1.1 4 1.1 9.7l.2 9.8.8-6.5c.4-3.6.5-7.3.2-8.3-.2-1-.8-8.3-1.2-16.2-.4-8.1-1.2-15-1.8-15.6-.8-.8-.8.1-.2 3.3z"/><path d="M322 366.9c0 .8 5 3.4 5.6 2.9.1-.2-1.1-1.1-2.7-2-1.6-.9-2.9-1.4-2.9-.9zM80.4 369.5c-2.5 4.2-15.4 52.3-15.4 57.1 0 1.9 5.6 1.9 6.4-.1.3-.8 1-5.3 1.6-9.8.5-4.6 2.2-12.6 3.5-17.8 4.1-15.2 5.6-23 5.3-27.3-.3-3.6-.4-3.9-1.4-2.1zM273 373c0 2.2 2.6 5.6 6.3 8.1l3.2 2.2-3.6-3.9c-2-2.1-4.1-4.8-4.7-5.9-.8-1.4-1.1-1.6-1.2-.5zM181.6 386.3c-3.7 6.9-8 14-15.3 25.4-1.8 2.8-5.4 7-8 9.3-3.7 3.3-4.1 3.9-1.8 2.7 4.7-2.4 8.8-7.3 16-19.2 7.2-11.8 13.9-24.5 13.3-25.1-.2-.2-2.1 2.9-4.2 6.9zM297.5 402c-.4 1.3.2 3.3 1.5 5.5 4 6.5 6.8 3.1 3.4-4.1-1.8-3.8-3.9-4.4-4.9-1.4zM216.9 407.2c-2.4 4.1-8.9 20.1-8.5 20.5.4.5 3.3-5.5 6.4-13.2.8-2.2 2.2-5 3-6.3.8-1.2 1.2-2.5.9-2.8-.3-.3-1.1.5-1.8 1.8zM294 407.3c0 1.3.9 3.2 2 4.2 1.9 1.8 2 1.7 2-.4 0-2.7-1.7-6.1-3-6.1-.6 0-1 1.1-1 2.3zM288.7 410.4c-.4.9.2 1.7 1.3 2.1 2.8.9 4.4-.3 2.9-2.1-1.5-1.8-3.5-1.8-4.2 0zM297.7 416.4c-2.3 3.4-1.6 6.2 1.1 4.7 1-.5 2.4-.6 3.2-.1 2 1.2 2.9.4 2.3-2-.6-2.3-1.8-2.6-3-.8-.5.9-.9.3-1.3-1.7l-.5-2.9-1.8 2.8zM291.7 417.5c-1.9 2.7-1.5 4.5.9 4.5.9 0 1.4-1.1 1.4-3.5 0-1.9-.1-3.5-.2-3.5-.2 0-1.1 1.2-2.1 2.5zM306.2 418.4c0 2 .2 2.6 1 1.8.6-.6 1.6-.8 2.3-.6.9.4 1.2-.3 1.1-1.9-.1-1.8-.6-2.4-2.2-2.3-1.6.1-2.1.8-2.2 3zM283.7 418.4c-.6 1.6.7 2.9 3.5 3.3 1.4.2 1.6-.2.9-2-1-2.6-3.6-3.4-4.4-1.3zM346.5 418.7c.3 1 1.2 3.5 1.8 5.5 1.1 3.7 2.7 5.1 2.7 2.5-.1-1.7-3.8-9.7-4.6-9.7-.3 0-.3.8.1 1.7zM92 424c0 2.2.5 4 1 4 .6 0 1-1.8 1-4s-.4-4-1-4c-.5 0-1 1.8-1 4z"/></svg>