<svg version="1" xmlns="http://www.w3.org/2000/svg" width="1893.333" height="1893.333" viewBox="0 0 1420.000000 1420.000000"><path d="M661.5 1.1C518.4 11.2 383.8 62.9 271.7 150.7c-29.8 23.5-65.5 56.8-90.5 84.8C78.5 350.4 17.4 490 2.4 644.5.2 667-.6 732 .9 754.7c2.5 35.7 6.2 63.4 12.7 96.3 29.6 147.9 106.8 283.6 219.4 385.4 111.9 101.2 249.1 163.1 397.5 179.5 53.7 6 114.9 5.6 167.5-.9 145.3-18 279.6-79.6 388.2-177.9 66.5-60.2 119.2-129.5 159.2-209.1 42.7-85.3 67.1-175.4 73.6-271.8 1.5-22.7 1.2-75.5-.5-98.7-10.2-136.5-58.3-264.9-139.9-373.5-43-57.3-97.2-110.4-154.3-151.3C1014.9 54.5 891.4 10.4 756 1c-17-1.2-77.2-1.1-94.5.1z"/></svg>